#!OML:ASF H:\Terrain\Patient Classification 1\Terrain2\Thursday\justin.ASF
:FULLY-SPECIFIED
:DEGREES
1890
root 10.0907 17.4534 -9.90908 437.293 -257.546 -277.158
lowerback 11.1973 1.56555 13.4397
upperback 4.00405 3.99488 4.66949
thorax -1.47189 2.1982 -3.06008
lowerneck -8.96431 -5.85152 -10.2766
upperneck 41.7592 -6.13164 6.56661
head 17.4875 -2.44295 4.11008
rclavicle -2.45499e-014 4.41302e-014
rhumerus -25.5966 -5.73543 -78.1849
rradius 39.9061
rwrist -15.8672
rhand -21.9765 12.666
rfingers 7.12502
rthumb 4.43151 -17.2676
lclavicle -2.45499e-014 4.41302e-014
lhumerus -36.9082 3.03646 83.6259
lradius 33.7417
lwrist 2.84762
lhand -19.3229 17.8244
lfingers 7.12502
lthumb 6.99349 47.6889
rfemur 8.63291 -10.5602 34.821
rtibia 20.4944
rfoot -16.3021 2.68425
rtoes -6.65664
lfemur -61.4193 0.489535 -0.418545
ltibia 67.4998
lfoot 10.9028 -24.9363
ltoes 7.58391
1891
root 10.1786 17.4474 -9.92548 436.785 -257.785 -277.781
lowerback 11.1113 1.4626 13.1857
upperback 4.06144 3.8093 4.66531
thorax -1.4089 2.1104 -2.90304
lowerneck -9.01334 -5.82132 -10.2762
upperneck 41.7022 -6.05785 6.46403
head 17.4513 -2.43072 4.06827
rclavicle -4.77083e-015 1.94809e-014
rhumerus -25.529 -5.80446 -78.2112
rradius 39.9275
rwrist -15.8564
rhand -22.0141 12.8643
rfingers 7.12502
rthumb 4.39518 -17.0701
lclavicle -4.77083e-015 1.94809e-014
lhumerus -36.9001 3.09311 83.6156
lradius 33.7168
lwrist 2.6644
lhand -18.7351 17.7716
lfingers 7.12502
lthumb 7.56088 47.6165
rfemur 8.83564 -9.97026 34.5576
rtibia 20.404
rfoot -16.3985 2.65995
rtoes -5.85144
lfemur -61.2162 -0.537878 -0.210097
ltibia 65.3001
lfoot 13.6312 -25.1379
ltoes 9.65346
1892
root 10.2649 17.444 -9.93786 436.73 -257.842 -277.907
lowerback 11.1344 1.35033 13.0481
upperback 4.12912 3.64977 4.72106
thorax -1.38618 2.03605 -2.75345
lowerneck -9.20474 -5.76898 -10.2106
upperneck 41.7281 -5.93459 6.31584
head 17.4883 -2.39242 4.00597
rclavicle 3.81667e-014 3.81667e-014
rhumerus -25.3855 -5.63164 -78.218
rradius 39.8507
rwrist -16.1045
rhand -21.7295 13.1935
rfingers 7.12502
rthumb 4.66995 -16.7351
lclavicle 3.81667e-014 3.81667e-014
lhumerus -36.9187 3.37824 83.5279
lradius 33.7538
lwrist 2.377
lhand -18.4361 17.484
lfingers 7.12502
lthumb 7.84946 47.3183
rfemur 9.0382 -9.53257 34.4847
rtibia 20.424
rfoot -16.368 2.546
rtoes -6.10991
lfemur -61.0071 -1.43928 0.242425
ltibia 63.2092
lfoot 15.9556 -26.0589
ltoes 9.87094
1893
root 10.3548 17.445 -9.94909 437.308 -257.831 -277.478
lowerback 11.0739 1.34741 13.0423
upperback 4.14553 3.63372 4.73702
thorax -1.33911 2.03137 -2.72833
lowerneck -9.26398 -5.74035 -10.1727
upperneck 41.67 -5.93758 6.38709
head 17.47 -2.38152 4.02738
rclavicle 1.2424e-014 6.63941e-014
rhumerus -25.4741 -5.36226 -78.3794
rradius 39.9652
rwrist -16.632
rhand -21.9243 13.1875
rfingers 7.12502
rthumb 4.4819 -16.7451
lclavicle 1.2424e-014 6.63941e-014
lhumerus -36.9349 3.4095 83.4749
lradius 33.8486
lwrist 2.51535
lhand -18.2446 17.7199
lfingers 7.12502
lthumb 8.03425 47.5472
rfemur 9.14529 -9.30091 34.4464
rtibia 20.5155
rfoot -16.2215 2.68753
rtoes -6.16258
lfemur -60.8275 -2.24486 0.793606
ltibia 61.2169
lfoot 17.971 -27.3315
ltoes 10.24
1894
root 10.4457 17.4438 -9.96279 438.188 -257.732 -276.743
lowerback 11.0218 1.36408 13.0795
upperback 4.1553 3.66075 4.88235
thorax -1.30434 2.04919 -2.59547
lowerneck -9.31195 -5.7457 -10.2944
upperneck 41.6486 -5.93538 6.43489
head 17.4797 -2.39545 4.07036
rclavicle 4.77083e-015 3.97569e-014
rhumerus -25.6642 -5.02516 -78.3911
rradius 40.2315
rwrist -16.9706
rhand -22.2243 12.6159
rfingers 7.12502
rthumb 4.1922 -17.3226
lclavicle 4.77083e-015 3.97569e-014
lhumerus -36.9667 3.39945 83.6731
lradius 33.8198
lwrist 2.679
lhand -18.5655 17.817
lfingers 7.12502
lthumb 7.7245 47.6559
rfemur 9.25502 -8.85448 34.5792
rtibia 20.6099
rfoot -16.2037 2.74269
rtoes -5.62729
lfemur -60.6274 -3.03803 1.48058
ltibia 59.3316
lfoot 20.6441 -27.5822
ltoes 13.675
1895
root 10.5354 17.4454 -9.97912 438.43 -257.844 -276.659
lowerback 10.9552 1.34842 12.943
upperback 4.16375 3.61862 4.97484
thorax -1.28071 2.02936 -2.41736
lowerneck -9.34506 -5.77304 -10.4294
upperneck 41.6131 -5.93383 6.39721
head 17.4747 -2.42377 4.07379
rclavicle -7.95139e-016 -1.66979e-014
rhumerus -25.707 -4.91893 -78.2952
rradius 40.1835
rwrist -17.106
rhand -22.3518 12.1364
rfingers 7.12502
rthumb 4.0691 -17.8045
lclavicle -7.95139e-016 -1.66979e-014
lhumerus -37.0541 3.38116 83.9024
lradius 33.8193
lwrist 2.84777
lhand -18.7659 17.562
lfingers 7.12502
lthumb 7.53107 47.408
rfemur 9.47243 -8.61374 34.4106
rtibia 20.5997
rfoot -16.3178 2.84674
rtoes -4.89184
lfemur -60.4758 -3.99859 1.98343
ltibia 57.6063
lfoot 23.1789 -27.3618
ltoes 17.246
1896
root 10.631 17.4437 -9.99805 438.423 -258.152 -276.771
lowerback 10.8805 1.32035 12.7273
upperback 4.22234 3.53484 4.92628
thorax -1.19951 1.99165 -2.33842
lowerneck -9.4593 -5.76485 -10.5133
upperneck 41.574 -5.91831 6.43382
head 17.4863 -2.42957 4.10459
rclavicle -1.8487e-014 3.10104e-014
rhumerus -25.6672 -5.27421 -78.239
rradius 39.843
rwrist -16.4772
rhand -22.2344 12.383
rfingers 7.12502
rthumb 4.18244 -17.5557
lclavicle -1.8487e-014 3.10104e-014
lhumerus -37.053 3.47279 83.9272
lradius 33.7998
lwrist 2.94291
lhand -18.5928 17.3435
lfingers 7.12502
lthumb 7.69818 47.1833
rfemur 9.76612 -8.74972 33.8952
rtibia 20.6277
rfoot -16.5514 3.14048
rtoes -5.50849
lfemur -60.2918 -5.03424 2.2832
ltibia 56.0856
lfoot 24.77 -27.4505
ltoes 17.4343
1897
root 10.7304 17.4278 -10.0211 439.084 -258.476 -276.221
lowerback 10.8571 1.3698 12.5086
upperback 4.25162 3.56288 4.86433
thorax -1.16228 2.00475 -2.2862
lowerneck -9.57715 -5.77502 -10.6071
upperneck 41.5968 -5.96769 6.5954
head 17.5508 -2.44472 4.19036
rclavicle 6.55989e-015 -2.8625e-014
rhumerus -25.795 -5.5198 -78.1932
rradius 39.6437
rwrist -15.8426
rhand -22.0767 12.7883
rfingers 7.12502
rthumb 4.33469 -17.1474
lclavicle 6.55989e-015 -2.8625e-014
lhumerus -37.053 3.65618 83.9009
lradius 33.7348
lwrist 2.71107
lhand -18.5771 17.6553
lfingers 7.12502
lthumb 7.71338 47.4946
rfemur 10.0905 -8.72704 33.4744
rtibia 20.5807
rfoot -16.8011 2.79866
rtoes -10.6529
lfemur -60.1582 -5.95598 2.57585
ltibia 54.8301
lfoot 25.9502 -27.5602
ltoes 16.8254
1898
root 10.8234 17.4262 -10.0446 440.29 -258.599 -275.225
lowerback 10.8249 1.35316 12.3675
upperback 4.16502 3.53037 4.94734
thorax -1.25639 1.97776 -2.12158
lowerneck -9.3728 -5.6984 -10.7953
upperneck 41.4969 -5.84609 6.64928
head 17.4351 -2.4212 4.26558
rclavicle 5.68524e-014 7.71285e-014
rhumerus -26.0614 -5.01961 -78.241
rradius 39.6073
rwrist -16.1751
rhand -22.3432 12.857
rfingers 7.12502
rthumb 4.07732 -17.0838
lclavicle 5.68524e-014 7.71285e-014
lhumerus -37.3299 3.87049 83.9656
lradius 33.7279
lwrist 2.60424
lhand -18.5786 17.8717
lfingers 7.12502
lthumb 7.71187 47.7111
rfemur 10.2494 -7.75172 33.4302
rtibia 20.4657
rfoot -16.4973 2.9798
rtoes -7.64846
lfemur -60.0373 -6.78477 3.07463
ltibia 53.7059
lfoot 26.6677 -27.601
ltoes 16.396
1899
root 10.9174 17.4241 -10.0691 441.702 -258.816 -273.938
lowerback 10.8671 1.35757 12.1797
upperback 4.14793 3.52338 4.96494
thorax -1.31258 1.96792 -2.00389
lowerneck -9.24694 -5.64481 -10.7976
upperneck 41.3469 -5.75121 6.54154
head 17.2962 -2.40155 4.22074
rclavicle -1.45113e-014 -3.97569e-014
rhumerus -26.2069 -4.77069 -78.3287
rradius 39.5307
rwrist -16.3578
rhand -22.5101 12.8222
rfingers 7.12502
rthumb 3.91619 -17.1215
lclavicle -1.45113e-014 -3.97569e-014
lhumerus -37.5605 3.86177 84.0464
lradius 33.7804
lwrist 2.56034
lhand -18.3467 17.8224
lfingers 7.12502
lthumb 7.93573 47.6534
rfemur 10.484 -7.14224 33.1581
rtibia 20.4257
rfoot -16.3144 3.2622
rtoes -5.446
lfemur -59.854 -7.69852 3.5368
ltibia 52.7612
lfoot 26.8139 -27.4694
ltoes 16.1643
